<?xml version="1.0" encoding="utf-8"?>
<!-- Generator: Adobe Illustrator 16.0.0, SVG Export Plug-In . SVG Version: 6.00 Build 0)  -->
<!DOCTYPE svg PUBLIC "-//W3C//DTD SVG 1.1//EN" "http://www.w3.org/Graphics/SVG/1.1/DTD/svg11.dtd">
<svg version="1.1" xmlns="http://www.w3.org/2000/svg" xmlns:xlink="http://www.w3.org/1999/xlink" x="0px" y="0px" width="1920px"
	 height="1080px" viewBox="0 0 1920 1080" enable-background="new 0 0 1920 1080" xml:space="preserve">
<g id="ground_1_">
	<polygon fill="#C76861" points="40.318,616.726 232.476,653.879 454.044,608.354 654.044,574.261 799.142,630.391 918.75,574.261 
		1089.304,629.741 1259.857,574.261 1379.466,630.391 1524.563,574.261 1724.563,608.354 1920,648.51 1920,0 0,0 0,497.815 
		0,622.535 	"/>
	<polygon fill="#8C2A1C" points="1724.563,608.354 1524.563,574.261 1379.466,630.391 1259.857,574.261 1089.304,629.741 
		918.75,574.261 799.142,630.391 654.044,574.261 454.044,608.354 232.476,653.879 40.318,616.726 0,622.535 0,940.705 
		22.768,933.776 109.042,933.776 171.787,912.294 263.944,900.356 316.885,927.808 389.435,955.259 465.905,912.294 
		532.572,955.259 601.199,937.611 660.022,912.294 709.493,912.294 791.396,941.533 854.141,955.259 932.571,927.808 
		1026.689,900.356 1075.709,912.294 1079.047,913.684 1099.813,922.334 1136.493,937.611 1263.944,955.259 1307.081,927.808 
		1434.532,900.356 1512.964,900.356 1569.826,941.533 1640.415,900.356 1677.613,918.314 1714.811,900.356 1785.399,941.533 
		1842.262,900.356 1920,900.356 1920,648.51 	"/>
	<polygon fill="#C03A2B" points="1677.613,918.314 1640.415,900.356 1569.826,941.533 1512.964,900.356 1434.532,900.356 
		1307.081,927.808 1263.944,955.259 1136.493,937.611 1099.813,922.334 1079.047,913.684 1075.709,912.294 1026.689,900.356 
		932.571,927.808 854.141,955.259 791.396,941.533 709.493,912.294 660.022,912.294 601.199,937.611 532.572,955.259 
		465.905,912.294 389.435,955.259 316.885,927.808 263.944,900.356 171.787,912.294 109.042,933.776 22.768,933.776 0,940.705 
		0,1080 1075.544,1080 1103.063,1080 1620.471,1080 1618.732,1045.455 1657.948,927.808 	"/>
	<polygon fill="#C03A2B" points="1736.493,1045.455 1734.756,1080 1920,1080 1920,900.356 1842.262,900.356 1785.399,941.533 
		1714.811,900.356 1677.613,918.314 1697.277,927.808 	"/>
	<polygon fill="#C03A2B" points="1618.732,1045.455 1620.471,1080 1734.756,1080 1736.493,1045.455 1697.277,927.808 
		1677.613,918.314 1657.948,927.808 	"/>
</g>
<g id="lander">
	
		<rect x="1241.183" y="911.262" transform="matrix(0.9036 -0.4284 0.4284 0.9036 -277.2096 631.5573)" fill="#212125" width="46.858" height="40.863"/>
	
		<rect x="1579.116" y="751.052" transform="matrix(0.9036 -0.4284 0.4284 0.9036 -176.0011 760.8934)" fill="#212125" width="46.857" height="40.864"/>
	<path fill="#67665F" d="M1321.454,1030.444c37.512,79.131,127.419,115.071,200.813,80.276l53.002-25.128
		c73.396-34.794,102.484-127.148,64.971-206.279l-71.031-149.832l-318.784,151.131L1321.454,1030.444z"/>
	<g>
		<polygon fill="#67665F" points="1527.521,641.548 1236.939,779.31 1248.221,788.395 1239.069,804.739 1218.656,813.596 
			1250.425,880.612 1569.209,729.481 		"/>
	</g>
	<polygon fill="#75756B" points="1430.759,579.725 1222.128,678.637 1263.813,766.57 1472.445,667.658 	"/>
	
		<line opacity="0.5" fill="none" stroke="#212125" stroke-width="4" stroke-miterlimit="10" x1="1234.428" y1="704.579" x2="1443.059" y2="605.668"/>
	
		<rect x="1166.085" y="636.389" transform="matrix(0.8551 -0.5185 0.5185 0.8551 -144.2224 777.1188)" fill="#A5A392" width="304.047" height="20.353"/>
	<polygon fill="#C2B958" points="1712.782,691.72 1612.722,766.57 1551.758,637.976 1662.604,585.425 	"/>
	<polygon fill="#C2B958" points="1316.507,1064.674 1205.664,1117.224 1113.928,923.719 1162.453,822.539 1194.516,807.339 	"/>
	
		<line opacity="0.5" fill="none" stroke="#212125" stroke-width="4" stroke-miterlimit="10" x1="1242.972" y1="722.602" x2="1451.603" y2="623.691"/>
	
		<line opacity="0.5" fill="none" stroke="#212125" stroke-width="4" stroke-miterlimit="10" x1="1250.539" y1="738.566" x2="1459.17" y2="639.655"/>
	
		<line opacity="0.5" fill="none" stroke="#212125" stroke-width="4" stroke-miterlimit="10" x1="1340.526" y1="717.979" x2="1467.714" y2="657.677"/>
	<circle opacity="0.5" fill="#212125" cx="1309.886" cy="822.539" r="41.277"/>
	<circle opacity="0.5" fill="#212125" cx="1518.211" cy="750.312" r="21.603"/>
	<circle opacity="0.5" fill="#212125" cx="1451.603" cy="756.588" r="21.603"/>
	
		<rect x="1257.318" y="989.453" transform="matrix(0.9059 -0.4236 0.4236 0.9059 -304.5342 631.6589)" opacity="0.35" fill="none" stroke="#2B2B2B" stroke-width="5.9592" stroke-linecap="round" stroke-linejoin="round" stroke-miterlimit="10" width="23.028" height="23.027"/>
	
		<rect x="1230.73" y="1001.887" transform="matrix(0.9058 -0.4236 0.4236 0.9058 -312.3325 621.683)" opacity="0.35" fill="none" stroke="#2B2B2B" stroke-width="5.9592" stroke-linecap="round" stroke-linejoin="round" stroke-miterlimit="10" width="23.027" height="23.027"/>
	
		<rect x="1190.629" y="989.228" transform="matrix(0.9058 -0.4236 0.4236 0.9058 -310.7388 603.4758)" opacity="0.35" fill="none" stroke="#2B2B2B" stroke-width="5.9592" stroke-linecap="round" stroke-linejoin="round" stroke-miterlimit="10" width="23.028" height="23.027"/>
	
		<rect x="1164.039" y="1001.662" transform="matrix(0.9058 -0.4236 0.4236 0.9058 -318.5184 593.4137)" opacity="0.35" fill="none" stroke="#2B2B2B" stroke-width="5.9592" stroke-linecap="round" stroke-linejoin="round" stroke-miterlimit="10" width="23.029" height="23.028"/>
	
		<rect x="1202.682" y="1015.001" transform="matrix(0.9058 -0.4237 0.4237 0.9058 -320.5616 611.1543)" opacity="0.35" fill="none" stroke="#2B2B2B" stroke-width="5.9592" stroke-linecap="round" stroke-linejoin="round" stroke-miterlimit="10" width="23.028" height="23.029"/>
	
		<rect x="1176.093" y="1027.437" transform="matrix(0.9058 -0.4236 0.4236 0.9058 -328.2859 600.889)" opacity="0.35" fill="none" stroke="#2B2B2B" stroke-width="5.9592" stroke-linecap="round" stroke-linejoin="round" stroke-miterlimit="10" width="23.029" height="23.029"/>
	
		<rect x="1216.249" y="1044.011" transform="matrix(0.9058 -0.4236 0.4236 0.9058 -331.526 619.4595)" opacity="0.35" fill="none" stroke="#2B2B2B" stroke-width="5.9592" stroke-linecap="round" stroke-linejoin="round" stroke-miterlimit="10" width="23.029" height="23.028"/>
	
		<rect x="1189.661" y="1056.446" transform="matrix(0.9058 -0.4236 0.4236 0.9058 -339.3049 609.3949)" opacity="0.35" fill="none" stroke="#2B2B2B" stroke-width="5.9592" stroke-linecap="round" stroke-linejoin="round" stroke-miterlimit="10" width="23.028" height="23.029"/>
	
		<rect x="1228.304" y="1069.788" transform="matrix(0.9058 -0.4236 0.4236 0.9058 -341.3101 626.993)" opacity="0.35" fill="none" stroke="#2B2B2B" stroke-width="5.9592" stroke-linecap="round" stroke-linejoin="round" stroke-miterlimit="10" width="23.029" height="23.028"/>
	
		<rect x="1201.715" y="1082.224" transform="matrix(0.9058 -0.4236 0.4236 0.9058 -349.0809 616.9007)" opacity="0.35" fill="none" stroke="#2B2B2B" stroke-width="5.9592" stroke-linecap="round" stroke-linejoin="round" stroke-miterlimit="10" width="23.029" height="23.027"/>
	
		<rect x="1271.011" y="1018.403" transform="matrix(0.9058 -0.4236 0.4236 0.9058 -315.536 640.3026)" opacity="0.35" fill="none" stroke="#2B2B2B" stroke-width="5.9592" stroke-linecap="round" stroke-linejoin="round" stroke-miterlimit="10" width="23.027" height="23.027"/>
	
		<rect x="1244.422" y="1030.837" transform="matrix(0.9058 -0.4236 0.4236 0.9058 -323.3003 630.1813)" opacity="0.35" fill="none" stroke="#2B2B2B" stroke-width="5.9592" stroke-linecap="round" stroke-linejoin="round" stroke-miterlimit="10" width="23.028" height="23.027"/>
	
		<rect x="1283.065" y="1044.178" transform="matrix(0.9058 -0.4237 0.4237 0.9058 -325.3365 647.8987)" opacity="0.35" fill="none" stroke="#2B2B2B" stroke-width="5.9592" stroke-linecap="round" stroke-linejoin="round" stroke-miterlimit="10" width="23.027" height="23.029"/>
	
		<rect x="1256.476" y="1056.613" transform="matrix(0.9058 -0.4236 0.4236 0.9058 -333.0844 637.7149)" opacity="0.35" fill="none" stroke="#2B2B2B" stroke-width="5.9592" stroke-linecap="round" stroke-linejoin="round" stroke-miterlimit="10" width="23.028" height="23.027"/>
	<g opacity="0.7">
		
			<rect x="1224.653" y="924.627" transform="matrix(0.9058 -0.4237 0.4237 0.9058 -280.1819 611.8647)" opacity="0.5" fill="none" stroke="#2B2B2B" stroke-width="5.9592" stroke-linecap="round" stroke-linejoin="round" stroke-miterlimit="10" width="23.028" height="23.028"/>
		
			<rect x="1198.065" y="937.062" transform="matrix(0.9058 -0.4236 0.4236 0.9058 -287.9404 601.7141)" opacity="0.5" fill="none" stroke="#2B2B2B" stroke-width="5.9592" stroke-linecap="round" stroke-linejoin="round" stroke-miterlimit="10" width="23.028" height="23.028"/>
		
			<rect x="1236.707" y="950.403" transform="matrix(0.9059 -0.4236 0.4236 0.9059 -289.9342 619.2531)" opacity="0.5" fill="none" stroke="#2B2B2B" stroke-width="5.9592" stroke-linecap="round" stroke-linejoin="round" stroke-miterlimit="10" width="23.028" height="23.027"/>
		
			<rect x="1210.119" y="962.837" transform="matrix(0.9058 -0.4236 0.4236 0.9058 -297.7306 609.2746)" opacity="0.5" fill="none" stroke="#2B2B2B" stroke-width="5.9592" stroke-linecap="round" stroke-linejoin="round" stroke-miterlimit="10" width="23.027" height="23.027"/>
		
			<rect x="1170.018" y="950.178" transform="matrix(0.9058 -0.4236 0.4236 0.9058 -296.1372 591.0681)" opacity="0.5" fill="none" stroke="#2B2B2B" stroke-width="5.9592" stroke-linecap="round" stroke-linejoin="round" stroke-miterlimit="10" width="23.028" height="23.027"/>
		
			<rect x="1143.429" y="962.612" transform="matrix(0.9058 -0.4236 0.4236 0.9058 -303.9163 581.0052)" opacity="0.5" fill="none" stroke="#2B2B2B" stroke-width="5.9592" stroke-linecap="round" stroke-linejoin="round" stroke-miterlimit="10" width="23.029" height="23.028"/>
		
			<rect x="1182.072" y="975.951" transform="matrix(0.9058 -0.4237 0.4237 0.9058 -305.9576 598.7432)" opacity="0.5" fill="none" stroke="#2B2B2B" stroke-width="5.9592" stroke-linecap="round" stroke-linejoin="round" stroke-miterlimit="10" width="23.028" height="23.029"/>
		
			<rect x="1155.483" y="988.387" transform="matrix(0.9058 -0.4236 0.4236 0.9058 -313.6848 588.4819)" opacity="0.5" fill="none" stroke="#2B2B2B" stroke-width="5.9592" stroke-linecap="round" stroke-linejoin="round" stroke-miterlimit="10" width="23.029" height="23.029"/>
		
			<rect x="1195.639" y="1004.962" transform="matrix(0.9058 -0.4236 0.4236 0.9058 -316.925 607.0524)" opacity="0.5" fill="none" stroke="#2B2B2B" stroke-width="5.9592" stroke-linecap="round" stroke-linejoin="round" stroke-miterlimit="10" width="23.029" height="23.028"/>
		
			<rect x="1169.05" y="1017.396" transform="matrix(0.9058 -0.4236 0.4236 0.9058 -324.7034 596.9871)" opacity="0.5" fill="none" stroke="#2B2B2B" stroke-width="5.9592" stroke-linecap="round" stroke-linejoin="round" stroke-miterlimit="10" width="23.028" height="23.029"/>
		
			<rect x="1207.694" y="1030.739" transform="matrix(0.9058 -0.4236 0.4236 0.9058 -326.7091 614.5859)" opacity="0.5" fill="none" stroke="#2B2B2B" stroke-width="5.9592" stroke-linecap="round" stroke-linejoin="round" stroke-miterlimit="10" width="23.029" height="23.028"/>
		
			<rect x="1181.105" y="1043.174" transform="matrix(0.9058 -0.4236 0.4236 0.9058 -334.4799 604.4937)" opacity="0.5" fill="none" stroke="#2B2B2B" stroke-width="5.9592" stroke-linecap="round" stroke-linejoin="round" stroke-miterlimit="10" width="23.029" height="23.027"/>
		
			<rect x="1250.401" y="979.353" transform="matrix(0.9058 -0.4236 0.4236 0.9058 -300.9341 627.8943)" opacity="0.5" fill="none" stroke="#2B2B2B" stroke-width="5.9592" stroke-linecap="round" stroke-linejoin="round" stroke-miterlimit="10" width="23.027" height="23.027"/>
		
			<rect x="1223.811" y="991.787" transform="matrix(0.9058 -0.4236 0.4236 0.9058 -308.6986 617.7735)" opacity="0.5" fill="none" stroke="#2B2B2B" stroke-width="5.9592" stroke-linecap="round" stroke-linejoin="round" stroke-miterlimit="10" width="23.028" height="23.027"/>
		
			<rect x="1262.455" y="1005.129" transform="matrix(0.9058 -0.4237 0.4237 0.9058 -310.7336 635.489)" opacity="0.5" fill="none" stroke="#2B2B2B" stroke-width="5.9592" stroke-linecap="round" stroke-linejoin="round" stroke-miterlimit="10" width="23.027" height="23.029"/>
		
			<rect x="1235.866" y="1017.564" transform="matrix(0.9058 -0.4236 0.4236 0.9058 -318.4829 625.3071)" opacity="0.5" fill="none" stroke="#2B2B2B" stroke-width="5.9592" stroke-linecap="round" stroke-linejoin="round" stroke-miterlimit="10" width="23.028" height="23.027"/>
	</g>
	<g opacity="0.7">
		
			<rect x="1642.664" y="596.721" transform="matrix(0.9058 -0.4237 0.4237 0.9058 -101.8978 758.0751)" opacity="0.5" fill="none" stroke="#2B2B2B" stroke-width="5.9592" stroke-linecap="round" stroke-linejoin="round" stroke-miterlimit="10" width="23.028" height="23.028"/>
		
			<rect x="1616.076" y="609.156" transform="matrix(0.9058 -0.4236 0.4236 0.9058 -109.6747 747.9152)" opacity="0.5" fill="none" stroke="#2B2B2B" stroke-width="5.9592" stroke-linecap="round" stroke-linejoin="round" stroke-miterlimit="10" width="23.028" height="23.028"/>
		
			<rect x="1654.718" y="622.497" transform="matrix(0.9059 -0.4236 0.4236 0.9059 -111.6951 765.4408)" opacity="0.5" fill="none" stroke="#2B2B2B" stroke-width="5.9592" stroke-linecap="round" stroke-linejoin="round" stroke-miterlimit="10" width="23.028" height="23.027"/>
		
			<rect x="1628.13" y="634.931" transform="matrix(0.9058 -0.4236 0.4236 0.9058 -119.4564 755.48)" opacity="0.5" fill="none" stroke="#2B2B2B" stroke-width="5.9592" stroke-linecap="round" stroke-linejoin="round" stroke-miterlimit="10" width="23.027" height="23.027"/>
		
			<rect x="1588.029" y="622.272" transform="matrix(0.9058 -0.4236 0.4236 0.9058 -117.8715 737.2692)" opacity="0.5" fill="none" stroke="#2B2B2B" stroke-width="5.9592" stroke-linecap="round" stroke-linejoin="round" stroke-miterlimit="10" width="23.028" height="23.027"/>
		
			<rect x="1561.44" y="634.706" transform="matrix(0.9058 -0.4236 0.4236 0.9058 -125.6407 727.2113)" opacity="0.5" fill="none" stroke="#2B2B2B" stroke-width="5.9592" stroke-linecap="round" stroke-linejoin="round" stroke-miterlimit="10" width="23.029" height="23.028"/>
		
			<rect x="1600.083" y="648.045" transform="matrix(0.9058 -0.4237 0.4237 0.9058 -127.6469 744.9672)" opacity="0.5" fill="none" stroke="#2B2B2B" stroke-width="5.9592" stroke-linecap="round" stroke-linejoin="round" stroke-miterlimit="10" width="23.028" height="23.029"/>
		
			<rect x="1573.494" y="660.481" transform="matrix(0.9058 -0.4236 0.4236 0.9058 -135.4275 734.6788)" opacity="0.5" fill="none" stroke="#2B2B2B" stroke-width="5.9592" stroke-linecap="round" stroke-linejoin="round" stroke-miterlimit="10" width="23.029" height="23.029"/>
		
			<rect x="1613.649" y="677.055" transform="matrix(0.9058 -0.4236 0.4236 0.9058 -138.6677 753.2493)" opacity="0.5" fill="none" stroke="#2B2B2B" stroke-width="5.9592" stroke-linecap="round" stroke-linejoin="round" stroke-miterlimit="10" width="23.029" height="23.028"/>
		
			<rect x="1587.061" y="689.49" transform="matrix(0.9058 -0.4236 0.4236 0.9058 -146.4376 743.1883)" opacity="0.5" fill="none" stroke="#2B2B2B" stroke-width="5.9592" stroke-linecap="round" stroke-linejoin="round" stroke-miterlimit="10" width="23.028" height="23.029"/>
		
			<rect x="1625.704" y="702.832" transform="matrix(0.9058 -0.4236 0.4236 0.9058 -148.4518 760.7828)" opacity="0.5" fill="none" stroke="#2B2B2B" stroke-width="5.9592" stroke-linecap="round" stroke-linejoin="round" stroke-miterlimit="10" width="23.029" height="23.028"/>
		
			<rect x="1599.116" y="715.268" transform="matrix(0.9058 -0.4236 0.4236 0.9058 -156.2227 750.6905)" opacity="0.5" fill="none" stroke="#2B2B2B" stroke-width="5.9592" stroke-linecap="round" stroke-linejoin="round" stroke-miterlimit="10" width="23.029" height="23.027"/>
		
			<rect x="1668.411" y="651.447" transform="matrix(0.9058 -0.4236 0.4236 0.9058 -122.6598 774.0997)" opacity="0.5" fill="none" stroke="#2B2B2B" stroke-width="5.9592" stroke-linecap="round" stroke-linejoin="round" stroke-miterlimit="10" width="23.027" height="23.027"/>
		
			<rect x="1641.822" y="663.881" transform="matrix(0.9058 -0.4236 0.4236 0.9058 -130.4329 763.9747)" opacity="0.5" fill="none" stroke="#2B2B2B" stroke-width="5.9592" stroke-linecap="round" stroke-linejoin="round" stroke-miterlimit="10" width="23.028" height="23.027"/>
		
			<rect x="1680.465" y="677.222" transform="matrix(0.9058 -0.4237 0.4237 0.9058 -132.441 781.7037)" opacity="0.5" fill="none" stroke="#2B2B2B" stroke-width="5.9592" stroke-linecap="round" stroke-linejoin="round" stroke-miterlimit="10" width="23.027" height="23.029"/>
		
			<rect x="1653.877" y="689.657" transform="matrix(0.9058 -0.4236 0.4236 0.9058 -140.2172 771.5083)" opacity="0.5" fill="none" stroke="#2B2B2B" stroke-width="5.9592" stroke-linecap="round" stroke-linejoin="round" stroke-miterlimit="10" width="23.028" height="23.027"/>
	</g>
	
		<rect x="1264.238" y="610.534" transform="matrix(-0.8641 -0.5033 0.5033 -0.8641 2099.9385 1796.1248)" fill="#A5A392" width="56.356" height="8.144"/>
	<circle fill="#A5A392" cx="1268.202" cy="600.189" r="8.633"/>
	<polygon fill="#C2B958" points="1134,852.691 1134,856.998 1134,867.302 1121.034,867.302 1121.034,875.201 1121.034,882.608 
		1121.034,895.31 1114,895.31 1114,900.356 1102.854,900.356 1118.455,933.268 1165.257,914 1194.271,841.691 1162.453,822.539 
		1139.636,833.356 1139.636,840.183 1133,841.691 	"/>
	<g opacity="0.7">
		
			<rect x="1174.448" y="817.39" transform="matrix(0.9058 -0.4237 0.4237 0.9058 -239.4788 580.4963)" opacity="0.5" fill="none" stroke="#2B2B2B" stroke-width="5.9592" stroke-linecap="round" stroke-linejoin="round" stroke-miterlimit="10" width="23.028" height="23.028"/>
		
			<rect x="1147.86" y="829.825" transform="matrix(0.9058 -0.4236 0.4236 0.9058 -247.2401 570.349)" opacity="0.5" fill="none" stroke="#2B2B2B" stroke-width="5.9592" stroke-linecap="round" stroke-linejoin="round" stroke-miterlimit="10" width="23.028" height="23.028"/>
		
			<rect x="1186.502" y="843.166" transform="matrix(0.9059 -0.4236 0.4236 0.9059 -249.238 587.8933)" opacity="0.5" fill="none" stroke="#2B2B2B" stroke-width="5.9592" stroke-linecap="round" stroke-linejoin="round" stroke-miterlimit="10" width="23.028" height="23.027"/>
		
			<rect x="1159.914" y="855.6" transform="matrix(0.9058 -0.4236 0.4236 0.9058 -257.0291 577.908)" opacity="0.5" fill="none" stroke="#2B2B2B" stroke-width="5.9592" stroke-linecap="round" stroke-linejoin="round" stroke-miterlimit="10" width="23.027" height="23.027"/>
		
			<rect x="1131.867" y="868.714" transform="matrix(0.9058 -0.4237 0.4237 0.9058 -265.2502 567.3696)" opacity="0.5" fill="none" stroke="#2B2B2B" stroke-width="5.9592" stroke-linecap="round" stroke-linejoin="round" stroke-miterlimit="10" width="23.028" height="23.029"/>
		
			<rect x="1145.433" y="897.724" transform="matrix(0.9058 -0.4236 0.4236 0.9058 -276.2261 575.689)" opacity="0.5" fill="none" stroke="#2B2B2B" stroke-width="5.9592" stroke-linecap="round" stroke-linejoin="round" stroke-miterlimit="10" width="23.029" height="23.028"/>
		
			<rect x="1118.845" y="910.159" transform="matrix(0.9058 -0.4236 0.4236 0.9058 -284.0032 565.6221)" opacity="0.5" fill="none" stroke="#2B2B2B" stroke-width="5.9592" stroke-linecap="round" stroke-linejoin="round" stroke-miterlimit="10" width="23.028" height="23.029"/>
		
			<rect x="1157.489" y="923.501" transform="matrix(0.9058 -0.4236 0.4236 0.9058 -286.0101 583.2225)" opacity="0.5" fill="none" stroke="#2B2B2B" stroke-width="5.9592" stroke-linecap="round" stroke-linejoin="round" stroke-miterlimit="10" width="23.029" height="23.028"/>
		
			<rect x="1130.9" y="935.937" transform="matrix(0.9058 -0.4236 0.4236 0.9058 -293.781 573.1302)" opacity="0.5" fill="none" stroke="#2B2B2B" stroke-width="5.9592" stroke-linecap="round" stroke-linejoin="round" stroke-miterlimit="10" width="23.029" height="23.027"/>
		
			<rect x="1200.196" y="872.116" transform="matrix(0.9058 -0.4236 0.4236 0.9058 -260.2324 596.5276)" opacity="0.5" fill="none" stroke="#2B2B2B" stroke-width="5.9592" stroke-linecap="round" stroke-linejoin="round" stroke-miterlimit="10" width="23.027" height="23.027"/>
		
			<rect x="1173.606" y="884.55" transform="matrix(0.9058 -0.4236 0.4236 0.9058 -267.9984 586.4085)" opacity="0.5" fill="none" stroke="#2B2B2B" stroke-width="5.9592" stroke-linecap="round" stroke-linejoin="round" stroke-miterlimit="10" width="23.028" height="23.027"/>
		
			<rect x="1212.25" y="897.891" transform="matrix(0.9058 -0.4237 0.4237 0.9058 -270.0291 604.1189)" opacity="0.5" fill="none" stroke="#2B2B2B" stroke-width="5.9592" stroke-linecap="round" stroke-linejoin="round" stroke-miterlimit="10" width="23.027" height="23.029"/>
		
			<rect x="1185.661" y="910.326" transform="matrix(0.9058 -0.4236 0.4236 0.9058 -277.7826 593.9421)" opacity="0.5" fill="none" stroke="#2B2B2B" stroke-width="5.9592" stroke-linecap="round" stroke-linejoin="round" stroke-miterlimit="10" width="23.028" height="23.027"/>
	</g>
	<polygon fill="#C2B958" points="1712.782,691.72 1717.749,702.08 1717.749,707.145 1715.266,714.739 1707.31,717.611 
		1717.749,732.919 1705.695,741.01 1696.027,743.162 1700.462,758.47 1696.027,764.408 1686.521,769.298 1686.521,782.641 
		1691.16,784.772 1686.521,789.358 1672.462,795.076 1660.688,787.479 1651.707,791.679 1639.651,784.605 1639.651,795.076 
		1643.078,801.793 1643.078,814.968 1636.399,810.383 1633.278,810.383 1610.777,762.92 1604.371,749.406 	"/>
	<circle opacity="0.5" fill="#212125" cx="1309.886" cy="822.539" r="13.607"/>
	<circle opacity="0.5" fill="#212125" cx="1451.603" cy="756.588" r="15.184"/>
	<circle opacity="0.5" fill="#212125" cx="1518.211" cy="750.312" r="15.309"/>
	<circle opacity="0.5" fill="#212125" cx="1484.048" cy="707.132" r="21.603"/>
	<circle opacity="0.5" fill="#212125" cx="1484.048" cy="707.132" r="15.309"/>
	
		<line opacity="0.5" fill="none" stroke="#212125" stroke-width="4" stroke-miterlimit="10" x1="1259.899" y1="756.932" x2="1317.334" y2="729.698"/>
	<polygon fill="#A5A392" points="1266.017,643.995 1264.396,647.858 1260.646,649.171 1258.02,654.047 1256.895,655.123 
		1254.082,656.297 1252.394,660.235 1247.705,660.235 1242.972,660.235 1236.256,661.907 1143.101,717.977 1183.668,717.725 
		1443.654,560.08 1459.17,527.737 	"/>
	<g>
		
			<rect x="1341.53" y="886.891" transform="matrix(0.8741 -0.4857 0.4857 0.8741 -264.3212 767.3824)" opacity="0.5" fill="#212125" width="13.442" height="13.441"/>
		
			<rect x="1358.505" y="917.439" transform="matrix(0.8742 -0.4856 0.4856 0.8742 -277.0088 779.3225)" opacity="0.5" fill="#212125" width="13.44" height="13.441"/>
		
			<line opacity="0.5" fill="none" stroke="#212125" stroke-width="2" stroke-miterlimit="10" x1="1351.515" y1="899.487" x2="1361.962" y2="918.284"/>
	</g>
	<path opacity="0.5" fill-rule="evenodd" clip-rule="evenodd" fill="#212125" d="M1593.808,886.506
		c2.815,0.775,5.663,1.648,8.557,2.33c2.27,0.534,1.946,2.145,1.544,3.591c-0.438,1.569-1.108,3.271-3.366,2.597
		c-2.396-0.718-4.741-1.631-7.168-2.214c-0.788-0.188-2.182,0.102-2.59,0.675c-6.461,9.116-15.187,11.036-25.471,8.277
		c-0.782-0.21-1.586-0.338-2.394-0.506c-1.213,5.288-2.284,10.261-3.523,15.192c-0.425,1.688-1.601,3.127-3.559,2.489
		c-1.913-0.624-2.501-2.346-1.909-4.239c0.513-1.644,1.211-3.239,1.92-4.813c1.975-4.382,2.109-9.661,7.189-12.998
		c7.832,1.968,15.901,1.635,22.223-6.78c-11.285-3.674-22.206-7.229-33.82-11.012c-0.463,2.638-0.876,4.997-1.365,7.786
		c-3.298-1.356-5.932-2.439-8.66-3.562c1.381-4.611,2.922-9.854,4.559-15.067c0.158-0.506,0.843-1.064,1.383-1.199
		c2.868-0.717,5.768-1.306,9.353-2.092c-1.136,3.3-2.106,6.118-2.773,8.054c11.165,3.796,22.216,7.553,33.495,11.388
		c1.333-6.134-0.637-10.946-4.154-15.281c-5.417-6.677-12.788-9.959-20.945-11.809c-1.392-0.315-2.786-0.614-4.248-0.936
		c0.178-0.346,0.246-0.608,0.322-0.61c11.812-0.347,22.637,2.181,30.708,11.536c4.152,4.813,5.235,10.784,4.782,17.042
		C1593.854,884.916,1593.848,885.49,1593.808,886.506z"/>
	<g opacity="0.5">
		<path fill="#212125" d="M1552.931,837.137c0.02-0.027,0.037-0.054,0.058-0.081c-0.017,0.006-0.03,0.013-0.047,0.02
			L1552.931,837.137z"/>
		<path fill="#212125" d="M1545.853,850.937c0.001,0.01,0.002,0.018,0.003,0.027c0.001-0.004,0.003-0.008,0.004-0.012
			L1545.853,850.937z"/>
		<path fill="#212125" d="M1554.365,844.353c-2.05-1.552-2.053-3.112-0.837-5.154c1.002-1.683,1.735-3.524,2.958-6.063
			c-2.553,1.354-4.414,2.135-6.042,3.254c-2.098,1.44-3.595,1.016-5.162-0.807c-1.254-1.459-2.775-2.688-4.676-4.489
			c0.506,2.978,0.803,5.251,1.298,7.48c0.356,1.599-0.13,2.49-1.597,3.171c-2.075,0.964-4.061,2.119-6.085,3.191
			c2.514,0.926,4.834,1.08,7.033,1.681c0.931,0.254,2.021,1.311,2.317,2.234c0.687,2.139,0.935,4.42,1.52,7.47
			c1.401-2.782,2.511-4.774,3.414-6.856c0.604-1.396,1.418-1.817,2.896-1.543c2.272,0.422,4.578,0.66,7.676,1.088
			C1557.078,847.002,1555.866,845.487,1554.365,844.353z M1552.931,837.137l0.011-0.062c0.017-0.007,0.03-0.014,0.047-0.02
			C1552.968,837.083,1552.95,837.109,1552.931,837.137z M1545.853,850.937l0.007,0.016c-0.001,0.004-0.003,0.008-0.004,0.012
			C1545.854,850.954,1545.854,850.946,1545.853,850.937z"/>
	</g>
</g>
<g id="ground">
	<rect y="983.633" fill="#E64C3C" width="1920" height="96.367"/>
	<path fill="#E64C3C" d="M1121.034,984.634l33.908-9.502c0,0,3.412,1.371,10.313-1.968s16.275-10.468,16.275-10.468
		s-3.835-7.932,9.33-2.872s36.323,0.221,36.323,0.221l12.874-10.465l13.714-1.97l29.525,13.582l38.911,4.93h16.534l12.039-4.93
		c0,0,34.284-9.641,38.192-11.612s28.223-1.97,28.223-1.97s13.795,0.002,16.309,0s26.07,4.844,26.07,4.844h18.436l11.807-2.874
		l18.75-1.97h35.295h13.783l11.563,4.844l26.113,7.37l15.273,1.368h21.871l17.616-1.368l27.203-7.37c0,0,5.904-1.037,13.691,0
		s7.787,1.037,7.787,1.037l34.109,11.396l11.675,8.276l15.307,3.887l33.027,7.583H1121.034"/>
</g>
<g id="rover">
	<g>
		<rect x="95.362" y="887.412" width="10.019" height="86.286"/>
		
			<rect x="223.577" y="857.026" transform="matrix(-0.3643 -0.9313 0.9313 -0.3643 -530.291 1447.6511)" width="10.704" height="95.569"/>
		<rect x="267.598" y="887.412" width="10.019" height="86.286"/>
		<g>
			<path d="M179.78,886.53c0-5.5,2.409-10,5.352-10c2.944,0,5.353,4.5,5.353,10v31.566c0,5.5-2.409,10-5.353,10
				c-2.943,0-5.352-4.5-5.352-10V886.53z"/>
		</g>
		<rect x="469.436" y="873.211" width="9.364" height="59.02"/>
		<circle cx="473.666" cy="976.317" r="47.451"/>
		<circle cx="473.667" cy="976.317" r="18.918"/>
		<circle cx="101.594" cy="976.05" r="47.451"/>
		<circle cx="272.607" cy="976.05" r="47.451"/>
		<circle cx="272.607" cy="976.05" r="18.918"/>
		<circle cx="101.594" cy="976.05" r="18.917"/>
		<circle cx="185.741" cy="923.963" r="18.917"/>
		<rect x="106.036" y="793.192" fill="#7F712D" width="422.411" height="100.58"/>
		<rect x="106.036" y="793.192" opacity="0.5" fill="#212125" width="4.178" height="100.58"/>
		<path fill="#7F712D" d="M324.738,696.052c0-2.346-1.901-4.247-4.247-4.247c-2.344,0-4.246,1.901-4.246,4.247
			c0,0.351,0.047,0.69,0.127,1.017l-24.712,24.711l3.102,3.104l24.712-24.714c0.326,0.081,0.666,0.128,1.016,0.128
			C322.836,700.297,324.738,698.396,324.738,696.052z"/>
		
			<rect x="131.693" y="857.026" transform="matrix(0.3643 -0.9313 0.9313 0.3643 -755.5084 702.7914)" fill="#46400D" width="10.704" height="95.569"/>
		<rect x="88.357" y="887.412" fill="#46400D" width="10.019" height="86.286"/>
		<circle fill="#46400D" cx="94.042" cy="888.091" r="5.681"/>
		
			<rect x="216.572" y="857.026" transform="matrix(-0.3643 -0.9313 0.9313 -0.3643 -539.8479 1441.1277)" fill="#46400D" width="10.704" height="95.569"/>
		<rect x="260.593" y="887.412" fill="#46400D" width="10.019" height="86.286"/>
		<g>
			<path fill="#46400D" d="M172.775,886.53c0-5.5,2.409-10,5.352-10c2.944,0,5.353,4.5,5.353,10v31.566c0,5.5-2.409,10-5.353,10
				c-2.943,0-5.352-4.5-5.352-10V886.53z"/>
		</g>
		<rect x="408.435" y="598.348" fill="#7F712D" width="146.537" height="55.484"/>
		<circle fill="#E5E5E5" cx="520.827" cy="626.09" r="17.783"/>
		<circle fill="#E5E5E5" cx="520.827" cy="626.09" r="17.783"/>
		<circle fill="#212125" cx="520.827" cy="626.09" r="13.522"/>
		<rect x="424.084" y="634.582" opacity="0.5" fill="#212125" width="23.732" height="10.957"/>
		<rect x="424.084" y="620.385" opacity="0.5" fill="#212125" width="23.732" height="10.957"/>
		<rect x="424.084" y="606.72" opacity="0.5" fill="#212125" width="23.732" height="10.958"/>
		<rect x="464.63" y="653.832" fill="#46400D" width="24.186" height="139.36"/>
		<rect x="462.431" y="873.211" fill="#46400D" width="9.364" height="59.02"/>
		<rect x="464.63" y="653.832" opacity="0.5" fill="#212125" width="4.178" height="139.36"/>
		<rect x="408.435" y="598.348" opacity="0.5" fill="#212125" width="4.178" height="55.484"/>
		
			<circle opacity="0.6" fill="none" stroke="#FFFFFF" stroke-width="2" stroke-miterlimit="10" cx="520.827" cy="626.09" r="7.567"/>
		<circle opacity="0.5" fill="#212125" cx="432.942" cy="841.128" r="20.412"/>
		<circle fill="#212125" cx="466.661" cy="976.317" r="47.451"/>
		<circle fill="#4A494A" cx="466.662" cy="976.317" r="18.918"/>
		<circle fill="none" stroke="#4A494A" stroke-width="4" stroke-miterlimit="10" cx="466.662" cy="975.839" r="41.336"/>
		<g>
			<path fill="#46400D" d="M439.765,841.127c-3.889-3.89-8.774-5.368-10.856-3.286c-2.082,2.081-0.603,6.966,3.287,10.855
				l24.28,24.279c3.889,3.89,8.774,5.368,10.856,3.287c2.081-2.082,0.602-6.967-3.287-10.856L439.765,841.127z"/>
		</g>
		<rect x="168.79" y="703.492" fill="#46400D" width="24.186" height="89.7"/>
		<rect x="168.79" y="703.549" opacity="0.5" fill="#212125" width="4.178" height="89.644"/>
		<rect x="140.304" y="703.492" fill="#EDE43B" width="39.03" height="39.029"/>
		<rect x="180.883" y="703.492" fill="#EDE43B" width="39.029" height="39.029"/>
		<rect x="140.304" y="743.881" fill="#EDE43B" width="39.03" height="39.03"/>
		<rect x="180.883" y="743.881" fill="#EDE43B" width="39.029" height="39.03"/>
		<g opacity="0.7">
			
				<rect x="202.426" y="705.521" opacity="0.5" fill="none" stroke="#2B2B2B" stroke-width="4" stroke-linecap="round" stroke-linejoin="round" stroke-miterlimit="10" width="15.457" height="15.457"/>
			
				<rect x="182.724" y="705.521" opacity="0.5" fill="none" stroke="#2B2B2B" stroke-width="4" stroke-linecap="round" stroke-linejoin="round" stroke-miterlimit="10" width="15.457" height="15.457"/>
			
				<rect x="202.426" y="724.621" opacity="0.5" fill="none" stroke="#2B2B2B" stroke-width="4" stroke-linecap="round" stroke-linejoin="round" stroke-miterlimit="10" width="15.457" height="15.457"/>
			
				<rect x="182.724" y="724.621" opacity="0.5" fill="none" stroke="#2B2B2B" stroke-width="4" stroke-linecap="round" stroke-linejoin="round" stroke-miterlimit="10" width="15.457" height="15.457"/>
			
				<rect x="161.941" y="705.521" opacity="0.5" fill="none" stroke="#2B2B2B" stroke-width="4" stroke-linecap="round" stroke-linejoin="round" stroke-miterlimit="10" width="15.457" height="15.457"/>
			
				<rect x="142.239" y="705.521" opacity="0.5" fill="none" stroke="#2B2B2B" stroke-width="4" stroke-linecap="round" stroke-linejoin="round" stroke-miterlimit="10" width="15.457" height="15.457"/>
			
				<rect x="161.941" y="724.621" opacity="0.5" fill="none" stroke="#2B2B2B" stroke-width="4" stroke-linecap="round" stroke-linejoin="round" stroke-miterlimit="10" width="15.457" height="15.457"/>
			
				<rect x="142.239" y="724.621" opacity="0.5" fill="none" stroke="#2B2B2B" stroke-width="4" stroke-linecap="round" stroke-linejoin="round" stroke-miterlimit="10" width="15.457" height="15.457"/>
			
				<rect x="161.941" y="746.117" opacity="0.5" fill="none" stroke="#2B2B2B" stroke-width="4" stroke-linecap="round" stroke-linejoin="round" stroke-miterlimit="10" width="15.457" height="15.457"/>
			
				<rect x="142.239" y="746.117" opacity="0.5" fill="none" stroke="#2B2B2B" stroke-width="4" stroke-linecap="round" stroke-linejoin="round" stroke-miterlimit="10" width="15.457" height="15.457"/>
			
				<rect x="161.941" y="765.218" opacity="0.5" fill="none" stroke="#2B2B2B" stroke-width="4" stroke-linecap="round" stroke-linejoin="round" stroke-miterlimit="10" width="15.457" height="15.457"/>
			
				<rect x="142.239" y="765.218" opacity="0.5" fill="none" stroke="#2B2B2B" stroke-width="4" stroke-linecap="round" stroke-linejoin="round" stroke-miterlimit="10" width="15.457" height="15.457"/>
			
				<rect x="202.52" y="746.117" opacity="0.5" fill="none" stroke="#2B2B2B" stroke-width="4" stroke-linecap="round" stroke-linejoin="round" stroke-miterlimit="10" width="15.457" height="15.457"/>
			
				<rect x="182.817" y="746.117" opacity="0.5" fill="none" stroke="#2B2B2B" stroke-width="4" stroke-linecap="round" stroke-linejoin="round" stroke-miterlimit="10" width="15.457" height="15.457"/>
			
				<rect x="202.52" y="765.218" opacity="0.5" fill="none" stroke="#2B2B2B" stroke-width="4" stroke-linecap="round" stroke-linejoin="round" stroke-miterlimit="10" width="15.457" height="15.457"/>
			
				<rect x="182.817" y="765.218" opacity="0.5" fill="none" stroke="#2B2B2B" stroke-width="4" stroke-linecap="round" stroke-linejoin="round" stroke-miterlimit="10" width="15.457" height="15.457"/>
		</g>
		<polygon fill="#46400D" points="303.948,729.365 303.645,729.092 303.645,728.742 303.255,728.742 279.459,707.356 
			279.459,728.742 279.459,729.365 279.459,793.192 303.645,793.192 303.645,729.365 		"/>
		<rect x="279.459" y="708.344" opacity="0.5" fill="#212125" width="4.178" height="84.849"/>
		<path fill="#46400D" d="M267.811,697.645l51.088,51.087c4.085,4.086,10.708,4.085,14.793,0l-65.881-65.881
			C263.727,686.936,263.727,693.56,267.811,697.645z"/>
		<circle opacity="0.5" fill="#212125" cx="219.912" cy="840.448" r="20.412"/>
		<circle fill="#212125" cx="94.589" cy="976.05" r="47.451"/>
		<circle fill="#212125" cx="265.603" cy="976.05" r="47.451"/>
		<circle fill="#4A494A" cx="265.602" cy="976.05" r="18.918"/>
		<circle fill="#4A494A" cx="94.589" cy="976.05" r="18.917"/>
		<circle fill="none" stroke="#4A494A" stroke-width="4" stroke-miterlimit="10" cx="265.602" cy="975.571" r="41.337"/>
		<circle fill="none" stroke="#4A494A" stroke-width="4" stroke-miterlimit="10" cx="94.589" cy="975.571" r="41.336"/>
		<g>
			<path fill="#46400D" d="M212.784,839.946c3.889-3.89,8.774-5.368,10.856-3.287c2.082,2.082,0.603,6.967-3.287,10.856
				l-33.508,33.508c-3.889,3.89-8.774,5.368-10.856,3.286c-2.081-2.081-0.602-6.966,3.287-10.855L212.784,839.946z"/>
		</g>
		<circle opacity="0.5" fill="#212125" cx="502.875" cy="839.089" r="12.427"/>
		<g>
			<path fill="#46400D" d="M509.588,838.97c-3.89-3.89-8.774-5.368-10.856-3.287c-2.081,2.082-0.603,6.967,3.287,10.856
				l42.611,42.611c3.89,3.89,8.774,5.368,10.855,3.286c2.081-2.081,0.603-6.966-3.287-10.855L509.588,838.97z"/>
		</g>
		<g>
			<path fill="#46400D" d="M601.114,846.539c3.89-3.89,5.369-8.774,3.287-10.856c-2.08-2.081-6.965-0.603-10.854,3.287
				l-42.611,42.612c-3.89,3.89-5.368,8.774-3.286,10.855c2.081,2.081,6.966,0.603,10.855-3.287L601.114,846.539z"/>
		</g>
		<path fill="none" stroke="#46400D" stroke-width="13" stroke-linecap="round" stroke-linejoin="round" stroke-miterlimit="10" d="
			M601.94,836.761c-6.34-6.34-6.34-16.618,0-22.958"/>
		<path fill="none" stroke="#46400D" stroke-width="13" stroke-linecap="round" stroke-linejoin="round" stroke-miterlimit="10" d="
			M625.493,837.357c-6.339,6.34-16.617,6.34-22.957,0"/>
		
			<rect x="455.505" y="860.775" transform="matrix(-0.7071 0.7071 -0.7071 -0.7071 1401.8562 1159.2179)" fill="#46400D" width="10.705" height="18.309"/>
		<polygon fill="#46400D" points="471.795,873.268 471.115,872.618 470.235,873.21 470.796,873.652 		"/>
		<circle fill="#7F712D" cx="178.737" cy="923.963" r="18.917"/>
		<circle fill="none" stroke="#212125" stroke-width="6" stroke-miterlimit="10" cx="178.737" cy="923.963" r="12.145"/>
		<circle fill="#46400D" cx="264.927" cy="888.091" r="5.681"/>
		<rect x="118.507" y="855.604" opacity="0.5" fill="#212125" width="23.732" height="10.957"/>
		<rect x="118.507" y="841.405" opacity="0.5" fill="#212125" width="23.732" height="10.958"/>
		<rect x="118.507" y="827.741" opacity="0.5" fill="#212125" width="23.732" height="10.957"/>
		<rect x="118.507" y="813.751" opacity="0.5" fill="#212125" width="23.732" height="10.958"/>
		<rect x="118.507" y="800.087" opacity="0.5" fill="#212125" width="23.732" height="10.957"/>
		<rect x="321.826" y="855.604" opacity="0.5" fill="#212125" width="23.732" height="10.957"/>
		<rect x="321.826" y="841.405" opacity="0.5" fill="#212125" width="23.732" height="10.958"/>
		<rect x="321.826" y="827.741" opacity="0.5" fill="#212125" width="23.732" height="10.957"/>
	</g>
</g>
<g id="beams">
	
		<path fill="none" stroke="#BDD74E" stroke-width="0.9498" stroke-linecap="round" stroke-linejoin="round" stroke-miterlimit="10" d="
		M348.393,701.989c5.308,0.365,9.907-3.641,10.273-8.948c0.365-5.309-3.641-9.907-8.949-10.272"/>
	
		<path fill="none" stroke="#BDD74E" stroke-width="1.6622" stroke-linecap="round" stroke-linejoin="round" stroke-miterlimit="10" d="
		M385.244,711.081c9.29,0.64,17.338-6.371,17.978-15.66c0.64-9.29-6.372-17.338-15.661-17.978"/>
	
		<path fill="none" stroke="#BDD74E" stroke-width="2.6745" stroke-linecap="round" stroke-linejoin="round" stroke-miterlimit="10" d="
		M419.371,723.033c14.947,1.029,27.898-10.25,28.927-25.196c1.029-14.948-10.252-27.897-25.2-28.927"/>
	
		<path fill="none" stroke="#BDD74E" stroke-width="3.5979" stroke-linecap="round" stroke-linejoin="round" stroke-miterlimit="10" d="
		M459,734.461c20.108,1.385,37.53-13.789,38.915-33.896c1.385-20.11-13.792-37.53-33.9-38.914"/>
	
		<path fill="none" stroke="#BDD74E" stroke-width="4.8331" stroke-linecap="round" stroke-linejoin="round" stroke-miterlimit="10" d="
		M521.816,749.966c27.011,1.859,50.413-18.523,52.273-45.531c1.86-27.015-18.526-50.414-45.538-52.274"/>
	
		<path fill="none" stroke="#BDD74E" stroke-width="6.1057" stroke-linecap="round" stroke-linejoin="round" stroke-miterlimit="10" d="
		M586.461,765.978c34.124,2.35,63.688-23.399,66.038-57.52c2.351-34.127-23.406-63.689-57.529-66.039"/>
	
		<path fill="none" stroke="#BDD74E" stroke-width="6.9523" stroke-linecap="round" stroke-linejoin="round" stroke-miterlimit="10" d="
		M686.453,780.093c38.856,2.676,72.52-26.646,75.195-65.496c2.676-38.859-26.65-72.521-65.506-75.196"/>
	
		<path fill="none" stroke="#BDD74E" stroke-width="9.7514" stroke-linecap="round" stroke-linejoin="round" stroke-miterlimit="10" d="
		M779.333,811.339c54.499,3.753,101.715-37.372,105.468-91.865c3.753-54.505-37.38-101.718-91.878-105.471"/>
	
		<path fill="none" stroke="#BDD74E" stroke-width="12.6721" stroke-linecap="round" stroke-linejoin="round" stroke-miterlimit="10" d="
		M905.852,839.874c70.822,4.878,132.182-48.565,137.059-119.38c4.877-70.83-48.577-132.185-119.398-137.062"/>
</g>
</svg>
